<?xml version="1.0" standalone="no"?>
<!DOCTYPE svg PUBLIC "-//W3C//DTD SVG 20010904//EN"
 "http://www.w3.org/TR/2001/REC-SVG-20010904/DTD/svg10.dtd">
<svg version="1.0" xmlns="http://www.w3.org/2000/svg"
 width="574.000000pt" height="574.000000pt" viewBox="0 0 574.000000 574.000000"
 preserveAspectRatio="xMidYMid meet">
<metadata>
Created by potrace 1.11, written by Peter Selinger 2001-2013
</metadata>
<g transform="translate(0.000000,574.000000) scale(0.100000,-0.100000)"
fill="#000000" stroke="none">
<path d="M1499 5728 c16 -17 198 -17 226 -1 16 10 -4 12 -109 13 -104 0 -127
-2 -117 -12z"/>
<path d="M1892 5723 c4 -23 36 -26 85 -7 35 13 48 13 76 3 25 -9 56 -9 128 -1
93 11 343 12 353 2 3 -3 1 -23 -4 -45 -14 -58 -13 -63 15 -81 30 -20 102 -22
143 -5 18 8 66 11 128 9 l98 -3 9 -32 10 -32 81 4 c44 3 125 8 180 11 71 4 96
3 92 -5 -4 -6 1 -19 10 -28 13 -13 19 -14 22 -5 2 6 10 12 18 12 9 0 12 -4 9
-10 -3 -5 -1 -10 5 -10 7 0 9 -7 6 -16 -4 -10 -2 -13 6 -8 8 5 9 2 5 -9 -5
-13 -1 -17 16 -18 12 -1 27 0 32 1 30 7 239 -32 259 -49 16 -13 173 -6 191 9
11 9 22 9 47 0 24 -9 44 -9 70 -2 53 15 90 2 100 -34 8 -26 7 -211 -7 -929 -3
-121 -7 -290 -10 -375 -3 -85 -3 -172 1 -192 5 -33 9 -38 32 -38 15 0 33 4 41
9 8 5 26 4 47 -5 l33 -14 -1 31 c-1 21 -4 26 -10 17 -8 -10 -11 -10 -15 0 -2
6 -11 12 -19 12 -11 0 -10 11 7 58 11 31 24 65 30 74 5 10 9 31 9 47 0 44 25
95 65 130 39 34 46 36 78 20 35 -18 57 -51 57 -86 0 -18 10 -52 23 -75 20 -40
22 -56 22 -203 -1 -136 -4 -171 -23 -231 -18 -58 -28 -76 -56 -95 -19 -13 -32
-29 -29 -36 11 -27 -16 -12 -29 17 -7 17 -15 30 -18 30 -3 0 -5 31 -5 68 0 53
-4 73 -18 87 -14 13 -18 30 -15 61 3 40 1 43 -26 48 -36 8 -41 3 -26 -23 6
-12 9 -25 6 -30 -3 -5 -2 -30 3 -55 8 -44 8 -46 -9 -31 -10 9 -28 17 -41 18
-13 1 -30 7 -37 14 -16 16 -42 17 -42 3 0 -7 -20 -9 -59 -4 -33 3 -65 3 -73
-2 -7 -5 -29 -9 -48 -9 -23 0 -34 -4 -32 -12 1 -7 -5 -13 -13 -13 -8 0 -15 5
-15 11 0 8 -14 10 -40 6 -23 -3 -38 -1 -34 4 3 5 -1 16 -10 24 -23 23 -28 124
-17 345 10 200 7 275 -10 286 -5 3 -9 -1 -10 -8 -1 -7 -5 -2 -9 12 -5 17 -8
19 -9 8 -1 -10 -5 -18 -11 -18 -5 0 -10 8 -10 18 0 10 -7 4 -16 -15 -9 -18
-23 -33 -30 -33 -8 0 -14 -4 -14 -10 0 -5 -5 -10 -11 -10 -5 0 -8 4 -5 9 5 8
-43 21 -99 27 -11 1 -29 5 -40 10 -11 5 -58 9 -105 9 -47 0 -89 5 -93 10 -6 6
-10 6 -14 -2 -5 -15 -33 -18 -33 -4 0 4 -22 13 -50 18 -41 8 -50 7 -56 -6 -4
-11 -8 -12 -11 -3 -3 8 -27 12 -70 12 -37 0 -63 -3 -60 -7 10 -10 -13 -33 -34
-33 -10 0 -21 5 -25 12 -5 8 0 9 14 6 12 -4 22 -3 22 2 0 13 -44 20 -51 8 -4
-6 -12 -7 -19 -3 -24 15 -60 14 -60 -1 0 -18 -16 -18 -24 1 -4 13 -10 13 -47
0 -56 -20 -95 -19 -103 2 -5 11 -10 13 -14 7 -9 -14 -62 -24 -62 -13 0 13 -34
11 -47 -2 -8 -8 -24 -7 -59 5 -56 19 -57 19 -49 6 9 -15 -17 -11 -39 5 -22 17
-56 20 -56 6 0 -5 -11 -4 -24 2 -13 7 -23 14 -21 18 2 3 -2 6 -11 6 -9 0 -12
-7 -8 -19 3 -10 1 -18 -5 -18 -6 0 -11 8 -11 18 0 9 -4 13 -8 7 -9 -13 -72
-15 -72 -3 0 6 -32 8 -74 7 -51 -2 -79 1 -90 10 -9 8 -19 11 -23 8 -3 -4 -12
-2 -18 3 -25 20 -38 -21 -51 -162 -9 -91 -12 -189 -8 -269 l7 -126 -57 -18
c-31 -10 -56 -20 -56 -23 0 -3 8 -11 18 -18 14 -12 15 -13 1 -8 -10 3 -20 1
-24 -5 -3 -6 -2 -11 4 -11 5 0 0 -11 -12 -24 -17 -19 -26 -22 -40 -15 -20 11
-57 3 -57 -12 0 -5 -4 -9 -10 -9 -5 0 -7 7 -3 16 5 14 3 15 -15 5 -11 -6 -30
-11 -42 -11 -12 0 -19 -4 -16 -8 2 -4 -4 -13 -15 -20 -10 -7 -19 -8 -19 -3 0
5 6 12 13 14 9 4 9 6 0 6 -7 1 -27 -8 -45 -20 -28 -18 -29 -20 -8 -14 19 5 22
4 10 -4 -8 -6 -21 -11 -28 -11 -43 0 -118 -104 -136 -187 -28 -126 9 -248 95
-317 45 -36 48 -41 34 -56 -16 -17 -20 -49 -7 -51 63 -8 93 -7 90 4 -12 66 85
89 184 43 61 -28 88 -48 88 -65 0 -13 -36 -51 -49 -51 -5 0 -7 -10 -3 -22 4
-17 2 -20 -11 -15 -11 4 -17 1 -17 -9 0 -8 -8 -18 -17 -21 -10 -4 -31 -19 -47
-35 -17 -15 -39 -28 -50 -28 -20 0 -20 0 1 -15 19 -13 28 -13 89 4 94 25 120
37 127 55 4 9 12 16 18 16 14 0 9 -175 -12 -446 -15 -193 -4 -372 28 -426 31
-55 99 -82 221 -86 105 -4 134 -17 60 -26 -92 -11 -108 -12 -108 -7 0 9 -113
7 -127 -2 -7 -4 -26 -10 -43 -12 -56 -7 -90 -16 -90 -25 0 -4 -18 -11 -41 -15
-29 -5 -39 -11 -35 -21 4 -10 -4 -14 -32 -15 -33 -1 -34 -2 -12 -9 14 -4 22
-9 18 -10 -14 -4 -28 -7 -38 -9 -5 0 -10 -8 -10 -16 0 -9 -9 -15 -24 -15 -13
0 -29 -7 -36 -15 -7 -9 -22 -12 -40 -9 -15 3 -38 1 -50 -6 -13 -7 -48 -14 -79
-15 -31 -2 -59 -4 -63 -4 -5 -1 -8 -7 -8 -14 0 -8 -15 -13 -42 -14 -22 -1 -46
-7 -52 -13 -5 -5 -18 -10 -28 -10 -10 0 -18 -4 -18 -9 0 -18 53 -72 66 -67 7
3 16 1 18 -3 3 -5 28 -11 56 -15 27 -4 50 -10 50 -15 0 -4 12 -8 28 -8 55 0
214 -16 232 -23 3 -1 12 -3 20 -4 10 -1 16 -14 18 -40 2 -28 9 -40 23 -43 10
-3 19 -9 19 -14 0 -15 47 -59 64 -59 9 0 16 -4 16 -9 0 -5 13 -9 29 -9 15 1
33 -2 40 -6 6 -4 55 -9 109 -11 187 -8 287 -17 298 -26 6 -5 33 -3 68 6 32 8
61 13 65 10 16 -9 286 -13 298 -3 7 5 13 5 17 -1 4 -6 18 -6 34 -1 17 4 36 3
47 -3 18 -10 306 -11 400 -1 22 2 63 4 90 4 55 1 105 17 102 33 -1 5 14 14 33
19 19 6 38 14 41 20 10 15 0 71 -14 85 -14 14 -11 83 4 83 14 0 11 28 -3 33
-18 7 33 25 89 33 27 3 51 11 56 18 5 8 9 7 15 -2 9 -13 30 -14 159 -12 42 1
55 -3 64 -19 7 -11 19 -17 27 -13 10 3 13 1 8 -6 -7 -12 30 -26 56 -20 8 2 40
-23 72 -55 32 -32 65 -56 74 -55 10 2 17 -3 16 -12 -1 -10 8 -17 23 -18 27 -2
149 -58 175 -80 10 -8 24 -12 33 -8 9 3 18 -1 21 -9 4 -8 12 -15 20 -15 8 0
14 -4 14 -9 0 -7 17 -12 110 -26 23 -3 592 -9 615 -6 6 1 3 6 -5 11 -12 8 -9
10 13 10 17 0 27 -5 27 -14 0 -12 29 -15 165 -15 91 -1 168 -1 172 -2 5 -1 51
-1 104 0 l97 1 1 59 c0 56 -1 59 -27 64 -15 3 -28 1 -30 -4 -6 -15 -32 -10
-32 6 0 9 -10 15 -26 15 -20 0 -25 4 -20 16 3 9 6 18 6 20 0 2 7 4 15 4 18 0
20 -16 3 -24 -7 -3 2 -3 20 0 17 3 32 1 32 -4 0 -5 14 -9 30 -10 17 0 30 4 30
9 0 5 -9 9 -20 9 -11 0 -20 5 -20 10 0 6 9 10 20 10 27 0 25 16 -2 25 l-23 7
25 7 25 7 -26 7 c-26 7 -49 37 -29 37 6 0 10 7 10 15 0 8 5 15 10 15 6 0 10
-4 10 -10 0 -5 5 -10 10 -10 6 0 10 9 10 20 0 19 -7 20 -249 20 -208 0 -251
-2 -261 -15 -7 -8 -17 -12 -22 -9 -6 4 -5 10 3 15 14 9 11 10 -46 13 -11 1
-25 -2 -32 -7 -6 -4 -14 -4 -17 2 -3 5 -68 9 -143 10 -76 1 -159 2 -185 4 -27
2 -48 -1 -48 -5 0 -4 -5 -8 -11 -8 -7 0 -10 17 -7 45 3 37 0 45 -14 45 -23 0
-32 -16 -13 -24 20 -7 19 -22 -5 -46 -18 -18 -18 -20 -3 -20 16 0 16 -2 3 -11
-12 -9 -11 -10 7 -6 12 3 27 -1 34 -9 17 -20 28 -17 22 6 -3 11 0 20 6 20 6 0
11 -4 11 -9 0 -14 31 -22 44 -12 13 11 296 20 290 9 -2 -4 5 -9 16 -13 11 -4
18 -11 15 -16 -9 -14 14 -49 33 -49 14 0 15 -2 2 -10 -12 -7 -11 -10 5 -16 11
-5 28 -17 37 -29 16 -18 17 -18 18 -2 0 10 -7 20 -15 23 -28 11 -15 23 30 30
25 3 43 10 40 14 -3 5 -14 6 -25 3 -15 -4 -20 0 -20 15 0 11 7 25 15 32 12 10
15 10 15 -3 0 -8 -6 -17 -12 -20 -7 -2 -9 -8 -5 -13 5 -5 15 -1 23 10 10 15
14 16 14 5 0 -13 9 -14 60 -5 38 6 60 15 60 23 0 19 18 16 30 -6 15 -28 12
-41 -7 -42 -13 0 -14 -2 -4 -6 10 -4 8 -9 -10 -19 l-24 -13 28 -1 c15 0 27 4
27 9 0 13 43 22 54 11 7 -7 3 -10 -10 -10 -11 0 -28 -9 -37 -21 -10 -11 -25
-18 -33 -15 -18 7 -18 -9 1 -28 19 -19 19 -30 1 -23 -8 3 -17 1 -20 -6 -2 -7
-5 -4 -5 6 -1 12 -9 17 -31 17 -16 0 -30 -5 -30 -11 0 -7 10 -9 25 -5 21 5 25
3 25 -16 0 -17 -3 -19 -9 -9 -6 9 -14 10 -26 4 -15 -9 -13 -12 14 -23 35 -14
39 -25 15 -38 -11 -6 -27 -4 -48 7 -24 12 -27 16 -13 19 10 2 24 -1 32 -8 8
-7 15 -7 19 -1 7 11 -10 17 -78 26 -45 6 -49 5 -37 -9 11 -13 11 -16 -1 -16
-26 0 -17 35 13 49 28 12 40 31 19 31 -5 0 -10 -4 -10 -10 0 -5 -7 -7 -15 -4
-9 4 -25 -4 -40 -20 -13 -14 -31 -26 -40 -26 -9 0 -13 -4 -10 -10 3 -5 -3 -10
-14 -10 -10 0 -22 6 -24 13 -3 7 -6 6 -6 -5 -1 -10 8 -18 22 -21 l22 -4 -22
-2 c-13 0 -23 -5 -23 -11 0 -5 -10 -10 -22 -9 -13 0 -17 3 -11 6 18 7 16 23
-2 23 -8 0 -15 5 -15 11 0 6 -9 8 -21 4 -15 -5 -19 -4 -15 4 4 6 0 11 -8 11
-9 0 -16 4 -16 9 0 5 -7 11 -14 14 -10 4 -13 1 -9 -9 6 -17 -18 -19 -36 -2
-11 11 -12 10 -6 -1 8 -14 -10 -31 -35 -31 -12 0 -13 2 -1 9 7 5 10 14 7 20
-9 13 -33 15 -40 2 -4 -5 4 -7 16 -5 l23 5 -23 -11 c-16 -7 -28 -6 -42 2 -17
11 -17 13 -2 25 14 10 14 12 2 13 -27 0 -46 -18 -33 -31 14 -14 6 -39 -12 -39
-8 0 -12 8 -10 19 2 13 -1 18 -10 15 -7 -3 -16 -1 -20 5 -10 17 -28 13 -21 -4
4 -10 -1 -15 -16 -15 -16 0 -18 3 -9 14 15 18 -4 26 -39 15 -21 -6 -22 -7 -5
-8 16 -2 14 -5 -10 -15 -16 -7 -32 -10 -35 -5 -3 4 -29 6 -58 4 -44 -2 -50 -1
-36 9 15 12 16 13 0 19 -9 4 -16 13 -16 22 0 11 13 15 53 16 28 1 44 3 35 6
-14 3 -15 9 -8 29 7 19 6 24 -5 24 -8 0 -15 -5 -15 -11 0 -18 -29 -41 -48 -36
-14 4 -14 6 6 12 27 9 29 35 2 42 -11 3 -20 10 -20 15 0 6 9 8 20 5 23 -6 23
-6 10 28 -5 14 -14 24 -19 21 -12 -8 -22 117 -10 129 12 12 12 78 -1 70 -6 -4
-10 23 -10 75 0 59 3 79 12 74 8 -5 9 -2 3 12 -5 10 -11 88 -12 172 l-4 152
28 1 c16 1 21 3 11 6 -9 2 -19 14 -21 26 -4 22 -4 21 -6 -1 0 -13 -5 -21 -10
-18 -5 3 -6 21 -2 38 6 33 6 46 2 143 -5 88 -2 101 22 114 21 11 20 11 -6 6
-21 -4 -27 -2 -21 6 4 7 7 27 6 46 -1 20 3 33 11 33 8 0 8 3 -2 9 -10 6 -14
38 -15 119 -1 86 1 106 10 90 10 -19 11 -19 18 -2 5 13 1 24 -12 35 -16 13
-17 18 -7 33 10 13 14 14 18 4 3 -7 6 -3 6 10 1 13 -5 22 -14 22 -18 0 -20 16
-2 23 9 4 8 8 -3 16 -13 10 -13 12 0 21 9 6 11 13 5 18 -18 13 -18 52 1 52 11
0 15 6 11 19 -3 14 -1 18 9 14 8 -3 14 0 14 6 0 6 -11 11 -25 11 -29 0 -31 6
-11 26 19 18 27 18 20 -1 -4 -8 -1 -15 5 -15 6 0 11 11 11 24 0 19 -4 22 -25
18 -20 -3 -24 -1 -19 12 3 9 1 16 -5 16 -6 0 -11 5 -11 11 0 5 5 7 11 3 8 -5
10 1 7 20 -3 17 -1 26 7 26 8 0 14 17 16 44 2 24 1 42 -3 39 -5 -2 -8 -19 -8
-37 0 -22 -5 -33 -15 -33 -8 0 -15 4 -15 9 0 4 4 8 9 8 4 0 6 57 4 127 -3 95
0 129 9 135 9 6 10 10 2 16 -8 5 -11 72 -10 219 1 191 3 210 17 202 20 -10 30
-2 22 17 -4 12 0 14 23 8 38 -9 39 -10 15 -24 -34 -18 -26 -40 14 -40 40 0 47
-17 10 -26 -14 -3 -25 -11 -25 -16 0 -6 -7 -8 -15 -4 -9 3 -15 0 -15 -9 0 -20
25 -19 45 1 12 12 19 13 29 5 9 -8 22 -8 39 -2 14 5 28 7 32 3 4 -4 6 -2 5 3
-10 48 12 71 52 56 20 -8 21 -10 6 -16 -10 -4 -25 -5 -33 -1 -21 8 -19 -11 3
-23 15 -9 14 -13 -13 -35 -16 -14 -35 -25 -41 -26 -6 0 -17 -7 -24 -15 -11
-13 -8 -15 18 -15 23 0 31 5 36 25 4 15 16 27 31 31 14 3 25 12 25 20 0 16 16
19 24 5 3 -5 -9 -19 -27 -31 -20 -14 -37 -37 -44 -59 -13 -39 -10 -49 9 -34 9
6 21 6 37 -3 24 -12 24 -12 -9 -16 -31 -3 -33 -6 -34 -41 -1 -29 3 -37 17 -37
9 0 17 -7 17 -15 0 -8 5 -15 11 -15 5 0 7 -4 4 -10 -10 -16 -45 -12 -39 4 3 8
1 17 -5 21 -6 3 -11 2 -11 -4 0 -6 -7 -8 -15 -5 -9 4 -14 14 -13 23 2 9 -4 16
-12 16 -8 0 -16 -10 -18 -22 -3 -19 1 -23 22 -23 19 0 26 -5 26 -20 0 -11 5
-20 11 -20 5 0 7 -4 4 -10 -3 -5 -22 -10 -41 -10 -19 0 -34 -4 -34 -9 0 -10
25 -21 48 -21 15 0 15 2 2 10 -12 8 -11 10 7 10 12 0 28 3 37 6 12 5 16 -1 16
-22 1 -28 1 -28 16 -9 8 11 20 19 25 18 5 -2 9 7 8 20 0 12 2 66 4 119 4 91 3
97 -16 100 -30 4 -31 22 -2 56 17 20 25 42 25 68 1 50 4 82 15 117 5 18 3 33
-4 40 -8 8 -11 8 -11 -1 0 -7 -8 -12 -17 -12 -13 0 -15 2 -5 8 7 5 17 35 22
68 12 75 13 70 -6 88 -13 13 -13 16 -1 16 11 0 14 15 14 63 0 55 0 58 -7 22
-7 -37 -7 -38 -10 -10 -1 17 -2 34 -1 39 1 5 -5 6 -13 3 -8 -3 -17 -3 -21 1
-3 4 -14 7 -23 7 -11 0 -18 10 -20 28 -4 31 17 38 25 7 8 -29 23 -24 24 8 1
20 3 22 6 7 9 -44 14 -50 22 -36 5 7 12 12 17 12 6 -1 10 79 5 107 -1 2 -8 -3
-16 -12 -9 -8 -14 -21 -13 -28 2 -7 -4 -13 -12 -13 -11 0 -14 9 -12 30 3 24 1
28 -9 18 -7 -7 -17 -13 -21 -13 -13 0 -9 28 5 33 19 7 1 20 -20 13 -17 -6 -21
-19 -26 -106 -2 -18 -9 -26 -24 -28 -26 -4 -31 15 -8 24 8 4 12 10 9 15 -3 5
0 9 7 9 12 0 8 45 -6 83 -5 12 -2 17 9 17 9 0 16 5 16 10 0 6 -7 10 -15 10
-17 0 -20 16 -5 25 6 4 8 10 5 15 -3 4 3 17 13 29 14 18 22 19 47 12 28 -9 29
-9 5 -10 -16 -1 -29 -10 -36 -26 -14 -29 -2 -35 79 -44 4 -1 7 -10 7 -20 0
-11 5 -23 10 -26 6 -4 10 14 11 47 1 29 2 72 3 96 2 35 -1 42 -16 42 -10 0
-18 -7 -18 -15 0 -16 1 -16 -50 -20 -19 -2 -27 -1 -17 2 15 4 17 13 14 51 -4
50 -15 59 -46 42 -27 -14 -36 -52 -20 -81 12 -23 12 -23 -12 -7 -18 12 -23 24
-22 50 l2 33 -17 -35 c-11 -23 -25 -36 -41 -38 -41 -6 -45 14 -8 37 57 35 60
71 7 71 -43 0 -46 18 -10 51 18 17 29 33 26 37 -4 3 -11 0 -15 -7 -5 -8 -14
-10 -21 -6 -10 6 -9 11 5 22 11 7 14 13 7 13 -6 0 -9 6 -6 14 3 7 -3 17 -13
20 -14 6 -15 4 -6 -5 6 -6 9 -18 6 -26 -9 -23 -43 42 -43 82 0 23 7 39 21 48
11 8 16 18 11 21 -18 11 -7 68 16 87 12 9 22 27 22 38 0 12 6 21 15 21 8 0 15
4 15 10 0 5 -7 7 -15 4 -11 -5 -15 1 -15 25 0 19 6 34 15 37 24 9 19 37 -5 29
-15 -5 -18 -3 -14 9 3 9 12 16 20 16 26 0 14 21 -19 35 -34 14 -34 15 -40 97
-9 115 -9 140 3 133 7 -4 7 3 0 20 -6 15 -10 42 -10 61 l0 34 -1331 0 c-1233
0 -1330 -1 -1327 -17z m2688 -447 c0 -83 -13 -119 -20 -56 -6 57 -1 120 11
120 5 0 9 -29 9 -64z m-22 -395 c10 -6 10 -10 -3 -21 -9 -7 -13 -21 -10 -31 4
-11 2 -19 -4 -19 -6 0 -10 18 -9 40 1 42 4 45 26 31z m174 -141 c-2 -16 -6
-30 -8 -30 -2 0 -4 14 -4 30 0 17 4 30 8 30 5 0 7 -13 4 -30z m-25 -17 c-3
-10 -5 -4 -5 12 0 17 2 24 5 18 2 -7 2 -21 0 -30z m-87 -32 c0 -5 -9 -7 -20
-4 -11 3 -20 7 -20 9 0 2 9 4 20 4 11 0 20 -4 20 -9z m40 -11 c0 -11 -4 -20
-9 -20 -5 0 -7 9 -4 20 3 11 7 20 9 20 2 0 4 -9 4 -20z m170 -27 c0 -41 -13
-35 -24 10 -5 20 -3 27 9 27 11 0 15 -11 15 -37z m-202 -17 c5 -38 -13 -56
-22 -22 -4 17 -13 26 -26 26 -20 0 -26 11 -13 24 4 4 19 6 33 4 19 -2 26 -9
28 -32z m172 4 c0 -5 -9 -10 -21 -10 -11 0 -17 5 -14 10 3 6 13 10 21 10 8 0
14 -4 14 -10z m-243 -32 c-3 -8 -6 -5 -6 6 -1 11 2 17 5 13 3 -3 4 -12 1 -19z
m112 -43 c-2 -19 2 -40 9 -47 20 -20 14 -34 -26 -62 -45 -31 -58 -32 -72 -7
-6 13 -17 17 -30 14 -12 -3 -20 0 -20 6 0 7 5 9 10 6 6 -4 11 6 11 22 2 24 2
25 6 5 4 -19 7 -21 20 -11 12 10 16 10 23 -1 5 -8 6 -18 4 -22 -3 -4 0 -8 5
-8 6 0 11 5 11 10 0 6 7 10 15 10 17 0 20 25 5 35 -5 3 -10 -2 -10 -12 -1 -12
-5 -8 -14 12 -15 34 -12 47 9 38 9 -3 15 1 15 9 0 13 18 38 28 38 2 0 2 -16 1
-35z m-9 -154 c2 -1 -1 -6 -6 -11 -7 -7 -28 -8 -55 -4 -34 6 -39 9 -24 15 16
6 44 6 85 0z m65 -21 c-4 -6 -1 -17 5 -25 9 -11 9 -15 1 -15 -6 0 -11 -9 -11
-20 0 -11 -4 -20 -9 -20 -17 0 -21 18 -11 44 7 19 6 26 -3 27 -6 0 -3 4 8 9
27 12 27 12 20 0z m-124 -32 c-5 -13 -15 -23 -22 -23 -8 0 -15 10 -17 23 -3
18 1 22 22 22 22 0 24 -3 17 -22z m-1824 -34 c-3 -3 -12 -4 -19 -1 -8 3 -5 6
6 6 11 1 17 -2 13 -5z m1831 -41 c2 -13 -2 -23 -8 -23 -8 0 -10 8 -7 21 5 17
2 20 -14 16 -10 -3 -22 -1 -25 5 -4 6 6 8 22 6 21 -2 30 -9 32 -25z m42 1 c0
-14 -3 -14 -15 -4 -8 7 -15 14 -15 16 0 2 7 4 15 4 8 0 15 -7 15 -16z m-84
-51 c-10 -10 -19 5 -10 18 6 11 8 11 12 0 2 -7 1 -15 -2 -18z m144 12 c7 -9
10 -18 7 -21 -10 -11 -37 5 -37 21 0 19 14 19 30 0z m30 -79 c-8 -8 -10 -1 -6
29 6 53 8 56 13 16 3 -18 -1 -39 -7 -45z m-125 34 c4 -16 1 -46 -5 -66 -8 -23
-9 -39 -3 -45 13 -13 4 -61 -10 -56 -11 3 -15 19 -19 74 -1 22 -8 35 -20 39
-10 3 -18 10 -18 15 0 13 24 11 38 -3 9 -9 12 -3 12 30 0 49 15 56 25 12z m95
0 c-8 -5 -19 -10 -25 -10 -5 0 -3 5 5 10 8 5 20 10 25 10 6 0 3 -5 -5 -10z
m-150 -75 c0 -8 -7 -15 -15 -15 -8 0 -15 7 -15 15 0 8 7 15 15 15 8 0 15 -7
15 -15z m160 -6 c0 -12 -37 -12 -44 0 -3 4 -3 11 0 14 8 7 44 -4 44 -14z m57
-2 c-29 -9 -43 -5 -33 11 3 5 18 7 33 4 l28 -5 -28 -10z m-125 -4 c0 -10 1
-26 0 -35 -1 -12 6 -16 26 -15 23 2 27 -1 24 -23 -1 -14 -3 -40 -4 -57 -1 -18
-5 -33 -10 -33 -15 0 -25 34 -18 62 8 25 6 28 -17 28 -18 0 -24 4 -20 15 4 8
2 17 -2 19 -11 7 -2 56 10 56 5 0 10 -8 11 -17z m98 -23 c0 -5 -2 -10 -4 -10
-3 0 -8 5 -11 10 -3 6 -1 10 4 10 6 0 11 -4 11 -10z m20 -30 c13 -8 12 -10 -2
-10 -10 0 -21 0 -25 -1 -4 0 -9 4 -11 10 -5 14 18 14 38 1z m-233 -32 c-3 -7
-5 -2 -5 12 0 14 2 19 5 13 2 -7 2 -19 0 -25z m271 -2 c-2 -1 -14 -11 -28 -23
l-25 -22 -1 22 c-1 18 4 22 27 23 16 1 28 1 27 0z m-85 -31 c-3 -9 -8 -14 -10
-11 -3 3 -2 9 2 15 9 16 15 13 8 -4z m-103 -19 c0 -3 -4 -8 -10 -11 -5 -3 -10
-1 -10 4 0 6 5 11 10 11 6 0 10 -2 10 -4z m42 -68 c-6 -6 -7 0 -4 19 5 21 7
23 10 9 2 -10 0 -22 -6 -28z m38 12 c0 -5 -2 -10 -4 -10 -3 0 -8 5 -11 10 -3
6 -1 10 4 10 6 0 11 -4 11 -10z m67 -92 c-3 -8 -6 -5 -6 6 -1 11 2 17 5 13 3
-3 4 -12 1 -19z m-2019 -98 c26 0 45 -25 37 -49 -3 -10 -3 -30 0 -43 5 -20 11
-24 33 -20 25 3 27 7 25 49 l-1 45 54 25 c29 13 56 29 59 34 4 5 14 9 24 9 14
0 20 -10 25 -41 3 -22 2 -48 -3 -57 -10 -16 -10 -16 -11 1 0 19 -37 38 -57 30
-18 -7 -27 -71 -15 -98 6 -13 30 -37 53 -52 30 -20 38 -29 26 -31 -28 -6 -19
-21 15 -24 25 -2 34 -10 45 -37 l14 -34 -28 6 c-15 3 -37 9 -47 13 -12 5 -17
4 -13 -3 4 -6 39 -19 78 -29 58 -15 67 -20 48 -25 -13 -4 -17 -7 -9 -8 13 -1
15 -13 13 -67 -2 -41 1 -63 7 -59 6 3 10 -3 10 -14 0 -12 -7 -21 -15 -21 -8 0
-16 -8 -17 -17 -1 -10 -2 -25 -4 -33 -1 -8 -2 -21 -3 -27 -1 -7 -6 -13 -12
-13 -6 0 -9 7 -5 15 11 29 -4 15 -23 -22 -46 -89 -146 -151 -249 -155 -105 -4
-193 58 -253 180 -30 59 -34 76 -32 138 1 80 14 114 43 114 11 0 20 5 20 11 0
7 -12 9 -32 7 -24 -4 -28 -3 -16 6 8 6 17 19 21 29 4 9 21 20 39 24 l33 7 -40
12 c-35 11 -37 13 -12 13 16 1 39 12 53 26 14 14 31 25 39 25 8 0 26 5 40 12
29 13 32 40 9 87 -15 30 -19 32 -52 26 -30 -5 -34 -4 -28 10 3 9 6 20 6 24 0
4 9 17 20 29 l20 21 25 -24 c13 -14 33 -25 43 -25z m2052 -120 c0 -5 -2 -10
-4 -10 -3 0 -8 5 -11 10 -3 6 -1 10 4 10 6 0 11 -4 11 -10z m-1555 -10 c-11
-5 -27 -9 -35 -9 -9 0 -8 4 5 9 11 5 27 9 35 9 9 0 8 -4 -5 -9z m-95 -30 c-8
-5 -19 -10 -25 -10 -5 0 -3 5 5 10 8 5 20 10 25 10 6 0 3 -5 -5 -10z m-720
-20 c17 -5 9 -7 -27 -6 -28 0 -49 5 -45 10 3 5 -2 7 -11 3 -10 -3 -17 -2 -17
4 0 10 44 5 100 -11z m57 -16 c-3 -3 -12 -4 -19 -1 -8 3 -5 6 6 6 11 1 17 -2
13 -5z m46 -11 c-7 -2 -19 -2 -25 0 -7 3 -2 5 12 5 14 0 19 -2 13 -5z m1519
-473 c-1 -206 -4 -381 -7 -388 -4 -10 -43 -12 -166 -11 l-161 1 7 371 c4 211
12 377 17 384 11 13 87 20 223 19 l90 -1 -3 -375z m-1633 366 c-2 -2 -31 -6
-64 -9 -37 -3 -51 -2 -35 3 25 8 107 13 99 6z m788 -2 c-3 -3 -12 -4 -19 -1
-8 3 -5 6 6 6 11 1 17 -2 13 -5z m-1463 -49 c40 -17 46 -39 15 -56 -15 -8 -24
-8 -32 0 -6 6 -20 11 -30 11 -13 0 -17 5 -13 16 4 12 1 14 -14 9 -14 -4 -20
-2 -20 8 0 31 36 36 94 12z m166 -12 c0 -22 -2 -25 -10 -13 -13 20 -13 40 0
40 6 0 10 -12 10 -27z m-102 -201 c9 -7 8 -13 -8 -27 -23 -21 -45 -9 -34 18 7
18 22 21 42 9z m1186 -518 c5 -14 4 -15 -9 -4 -17 14 -19 20 -6 20 5 0 12 -7
15 -16z m626 -730 c11 -19 20 -24 37 -21 13 2 23 0 23 -4 0 -5 -13 -9 -29 -9
-39 0 -56 -22 -39 -50 16 -26 -1 -40 -48 -40 -17 0 -52 -3 -78 -6 -37 -6 -46
-4 -46 8 0 22 -26 43 -33 26 -4 -10 -8 -10 -16 2 -8 12 -13 11 -32 -10 -18
-21 -21 -21 -14 -5 4 11 10 36 12 55 4 33 3 34 -11 16 -15 -19 -16 -18 -16 12
0 44 20 51 161 51 114 1 116 1 129 -25z m-753 10 c-3 -3 -12 -4 -19 -1 -8 3
-5 6 6 6 11 1 17 -2 13 -5z m353 -366 c110 5 123 2 193 -52 50 -38 49 -47 -7
-93 -58 -48 -401 -57 -503 -13 -28 12 -54 29 -57 37 -8 19 31 74 48 67 7 -3
18 2 25 10 9 10 22 13 42 9 21 -4 33 -1 42 10 17 23 83 37 137 29 25 -3 61 -5
80 -4z m1979 -4 c8 -7 -10 -35 -19 -29 -5 3 -10 1 -10 -4 0 -6 -4 -11 -10 -11
-5 0 -10 14 -10 31 0 27 3 30 23 23 12 -3 24 -8 26 -10z m191 6 c0 -5 -2 -10
-4 -10 -3 0 -8 5 -11 10 -3 6 -1 10 4 10 6 0 11 -4 11 -10z m207 4 c-3 -3 -12
-4 -19 -1 -8 3 -5 6 6 6 11 1 17 -2 13 -5z m69 -6 c14 -23 11 -49 -4 -46 -9 2
-16 15 -16 31 -2 29 8 35 20 15z m-110 -13 c12 -9 14 -14 6 -15 -7 0 -10 -4
-7 -10 3 -5 -1 -10 -9 -10 -9 0 -16 5 -16 10 0 6 -5 10 -11 10 -5 0 -7 -4 -4
-10 4 -6 -6 -10 -24 -10 -23 0 -29 4 -25 15 7 17 40 29 55 19 8 -4 9 -3 5 4
-10 17 6 15 30 -3z m59 -5 c-17 -7 -17 -9 -2 -9 24 -1 22 -21 -2 -21 -11 0
-23 5 -26 10 -10 16 4 30 28 29 21 0 21 -1 2 -9z m-25 -50 c0 -5 -4 -10 -10
-10 -5 0 -10 5 -10 10 0 6 5 10 10 10 6 0 10 -4 10 -10z m80 -15 c0 -30 -3
-30 -30 -8 -27 23 -25 33 5 33 20 0 25 -5 25 -25z m-118 -17 c-9 -9 -15 -9
-24 0 -9 9 -7 12 12 12 19 0 21 -3 12 -12z m-50 -10 c2 -6 13 -12 24 -13 25
-1 66 -29 57 -38 -11 -12 -23 -8 -23 8 0 8 -4 15 -9 15 -15 0 -25 -21 -14 -29
5 -3 12 -14 16 -23 4 -11 17 -18 32 -18 18 0 25 -5 25 -20 0 -16 7 -20 34 -20
18 0 39 -7 46 -15 15 -18 -1 -21 -30 -5 -10 6 -30 11 -43 12 -16 1 -23 7 -20
15 3 7 -1 14 -8 15 -8 0 -18 2 -24 2 -19 3 -35 17 -30 27 4 5 -15 10 -42 11
-36 1 -40 2 -16 5 35 4 34 0 3 63 -8 15 -7 20 4 20 8 0 16 -5 18 -12z m-32
-18 c-20 -13 -33 -13 -25 0 3 6 14 10 23 10 15 0 15 -2 2 -10z m170 -56 l25
-15 -25 7 c-14 3 -29 10 -34 15 -16 14 6 10 34 -7z m-205 -24 c-3 -5 -12 -10
-18 -10 -7 0 -6 4 3 10 19 12 23 12 15 0z m275 -6 c0 -2 -9 -4 -20 -4 -11 0
-20 4 -20 9 0 5 9 7 20 4 11 -3 20 -7 20 -9z m-915 -14 c-3 -5 -13 -10 -21
-10 -8 0 -12 5 -9 10 3 6 13 10 21 10 8 0 12 -4 9 -10z m432 4 c-3 -3 -12 -4
-19 -1 -8 3 -5 6 6 6 11 1 17 -2 13 -5z m-627 -12 c0 -5 -16 -8 -35 -8 -46 1
-46 16 0 16 19 0 35 -4 35 -8z m87 2 c-3 -3 -12 -4 -19 -1 -8 3 -5 6 6 6 11 1
17 -2 13 -5z m330 -8 c3 -3 -15 -6 -41 -6 -26 0 -45 4 -42 9 7 10 73 8 83 -3z
m433 4 c0 -5 -7 -10 -16 -10 -8 0 -12 5 -9 10 3 6 10 10 16 10 5 0 9 -4 9 -10z
m-235 -10 c8 -13 -5 -13 -25 0 -13 8 -13 10 2 10 9 0 20 -4 23 -10z m80 0 c3
-5 1 -10 -4 -10 -6 0 -11 5 -11 10 0 6 2 10 4 10 3 0 8 -4 11 -10z m-568 -6
c-3 -3 -12 -4 -19 -1 -8 3 -5 6 6 6 11 1 17 -2 13 -5z m90 0 c-3 -3 -12 -4
-19 -1 -8 3 -5 6 6 6 11 1 17 -2 13 -5z"/>
<path d="M2765 3532 c-41 -5 -48 -14 -40 -51 7 -34 75 -114 75 -89 0 8 11 20
24 28 24 13 45 77 32 98 -7 12 -51 18 -91 14z m65 -50 c0 -12 -3 -12 -15 -2
-8 7 -15 13 -15 15 0 1 7 2 15 2 8 0 15 -7 15 -15z"/>
<path d="M2626 3314 c-12 -31 -6 -77 15 -114 52 -91 233 -110 303 -31 45 50
51 129 12 144 -8 3 -42 -3 -76 -15 l-61 -20 -70 26 c-81 30 -114 33 -123 10z"/>
<path d="M4892 5620 c2 -66 1 -120 -2 -120 -12 0 -5 -169 8 -181 17 -18 15
-29 -4 -29 -13 0 -14 -3 -4 -15 7 -8 10 -22 6 -31 -6 -15 4 -15 49 3 6 2 22
-8 35 -22 13 -14 29 -25 36 -25 6 0 25 -14 41 -30 34 -35 63 -32 63 7 0 23 2
24 40 18 34 -6 40 -4 40 10 0 15 7 17 53 11 28 -3 70 -12 91 -20 32 -11 36
-15 20 -20 -10 -3 1 -4 26 -2 29 2 50 -2 58 -10 20 -22 42 -17 39 9 -2 20 2
22 52 21 29 -1 56 -6 60 -11 5 -7 118 -43 136 -43 3 0 5 135 5 300 l0 300
-426 0 -425 0 3 -120z m55 -352 c-3 -7 -5 -2 -5 12 0 14 2 19 5 13 2 -7 2 -19
0 -25z m383 -32 c0 -3 -4 -8 -10 -11 -5 -3 -10 -1 -10 4 0 6 5 11 10 11 6 0
10 -2 10 -4z"/>
<path d="M4761 5484 c0 -11 3 -14 6 -6 3 7 2 16 -1 19 -3 4 -6 -2 -5 -13z"/>
<path d="M4704 5449 c-3 -6 -1 -16 5 -22 8 -8 11 -5 11 11 0 24 -5 28 -16 11z"/>
<path d="M4730 5351 c0 -23 16 -36 25 -21 3 5 1 10 -5 10 -6 0 -8 5 -5 10 5 8
11 7 21 -1 8 -7 14 -7 14 -1 0 10 -23 22 -41 22 -5 0 -9 -9 -9 -19z"/>
<path d="M4640 5331 c0 -11 31 -24 39 -16 3 3 -1 10 -9 15 -19 12 -30 12 -30
1z"/>
<path d="M4775 5320 c-3 -5 -2 -10 4 -10 5 0 13 5 16 10 3 6 2 10 -4 10 -5 0
-13 -4 -16 -10z"/>
<path d="M4815 5290 c-3 -5 -1 -10 4 -10 6 0 11 5 11 10 0 6 -2 10 -4 10 -3 0
-8 -4 -11 -10z"/>
<path d="M4620 5280 c0 -5 5 -10 10 -10 6 0 10 5 10 10 0 6 -4 10 -10 10 -5 0
-10 -4 -10 -10z"/>
<path d="M4688 5263 c7 -3 16 -2 19 1 4 3 -2 6 -13 5 -11 0 -14 -3 -6 -6z"/>
<path d="M4827 5259 c-21 -12 -13 -29 14 -29 20 0 23 8 11 27 -5 8 -13 8 -25
2z"/>
<path d="M4755 5250 c3 -5 8 -10 11 -10 2 0 4 5 4 10 0 6 -5 10 -11 10 -5 0
-7 -4 -4 -10z"/>
<path d="M4715 5230 c3 -5 8 -10 11 -10 2 0 4 5 4 10 0 6 -5 10 -11 10 -5 0
-7 -4 -4 -10z"/>
<path d="M4760 5209 c0 -5 5 -7 10 -4 6 3 10 8 10 11 0 2 -4 4 -10 4 -5 0 -10
-5 -10 -11z"/>
<path d="M4821 5197 c-12 -15 -5 -27 16 -27 7 0 13 9 13 20 0 23 -13 26 -29 7z"/>
<path d="M4620 5190 c0 -5 5 -10 10 -10 6 0 10 5 10 10 0 6 -4 10 -10 10 -5 0
-10 -4 -10 -10z"/>
<path d="M4912 5184 c-14 -16 -5 -18 17 -5 7 5 9 11 5 14 -5 3 -15 -1 -22 -9z"/>
<path d="M5175 5170 c3 -5 10 -10 16 -10 5 0 9 5 9 10 0 6 -7 10 -16 10 -8 0
-12 -4 -9 -10z"/>
<path d="M4600 5154 c0 -9 7 -14 17 -12 25 5 28 28 4 28 -12 0 -21 -6 -21 -16z"/>
<path d="M4824 5134 c3 -9 6 -18 6 -20 0 -2 5 -4 10 -4 6 0 10 9 10 20 0 12
-7 20 -16 20 -11 0 -14 -5 -10 -16z"/>
<path d="M4645 5129 c-4 -6 -5 -13 -2 -16 7 -7 27 6 27 18 0 12 -17 12 -25 -2z"/>
<path d="M4690 5113 c-13 -15 -12 -16 4 -10 10 4 20 7 22 7 2 0 4 5 4 10 0 15
-13 12 -30 -7z"/>
<path d="M5100 5100 c0 -5 5 -10 11 -10 5 0 7 5 4 10 -3 6 -8 10 -11 10 -2 0
-4 -4 -4 -10z"/>
<path d="M4908 5093 c7 -3 16 -2 19 1 4 3 -2 6 -13 5 -11 0 -14 -3 -6 -6z"/>
<path d="M4830 5080 c19 -13 30 -13 30 0 0 6 -10 10 -22 10 -19 0 -20 -2 -8
-10z"/>
<path d="M4875 5070 c3 -5 15 -10 26 -10 10 0 19 5 19 10 0 6 -12 10 -26 10
-14 0 -23 -4 -19 -10z"/>
<path d="M4940 5071 c0 -11 31 -24 39 -16 3 3 -1 10 -9 15 -19 12 -30 12 -30
1z"/>
<path d="M4663 5051 c-3 -12 -17 -21 -39 -25 -42 -8 -51 -22 -30 -45 15 -17
19 -17 51 -3 19 9 35 20 35 24 0 12 -8 10 -34 -8 -16 -10 -26 -12 -31 -5 -20
34 51 43 80 11 14 -16 20 -17 27 -8 12 20 10 28 -7 22 -11 -5 -17 3 -21 25 -7
35 -23 41 -31 12z"/>
<path d="M4566 5035 c-16 -24 -6 -45 11 -22 19 24 23 36 14 41 -5 3 -16 -5
-25 -19z"/>
<path d="M4767 5053 c-3 -4 6 -21 19 -36 13 -16 24 -24 24 -20 0 5 -5 14 -12
21 -9 9 -8 12 5 12 9 0 17 5 17 11 0 6 -6 9 -14 6 -7 -3 -18 -1 -24 5 -5 5
-12 6 -15 1z"/>
<path d="M5105 5030 c-3 -5 -1 -10 4 -10 6 0 11 5 11 10 0 6 -2 10 -4 10 -3 0
-8 -4 -11 -10z"/>
<path d="M4990 4996 c0 -4 -7 -6 -15 -2 -9 3 -15 0 -15 -10 0 -11 6 -13 20 -9
23 7 63 -12 55 -26 -4 -5 0 -9 8 -9 17 0 40 24 31 33 -4 3 6 9 21 13 21 5 31
2 40 -10 7 -9 19 -16 28 -16 9 0 19 -5 22 -10 5 -8 11 -7 21 1 19 15 18 29 -2
29 -8 0 -12 4 -9 10 3 5 -4 12 -17 14 -37 8 -188 2 -188 -8z"/>
<path d="M2106 4973 c-4 -4 -42 -11 -84 -15 -140 -12 -177 -19 -209 -40 -19
-11 -41 -17 -52 -13 -26 8 -36 -11 -13 -24 11 -6 22 -8 25 -5 3 3 15 3 26 -1
16 -5 19 -12 14 -39 -5 -33 -5 -34 38 -39 113 -14 241 -38 260 -48 13 -7 24
-7 28 -2 3 6 40 13 81 16 113 10 150 23 150 52 0 18 4 23 15 19 23 -9 18 19
-6 34 -29 18 -108 42 -140 42 -26 0 -59 27 -59 47 0 20 -58 32 -74 16z"/>
<path d="M4810 4959 c-19 -10 -27 -19 -18 -19 11 0 15 -6 11 -20 -8 -31 -36
-20 -47 18 -5 17 -12 32 -17 32 -11 0 -22 -39 -23 -85 -1 -31 -6 -42 -23 -50
-13 -5 -23 -15 -23 -22 0 -22 50 8 56 33 6 24 56 36 92 23 15 -6 23 -1 32 17
8 13 10 27 7 31 -4 3 -7 -1 -7 -10 0 -9 -7 -17 -15 -17 -9 0 -15 9 -15 25 0
16 5 23 13 19 8 -3 13 5 15 21 1 14 1 25 -1 24 -1 0 -18 -9 -37 -20z"/>
<path d="M4654 4939 c-3 -6 -15 -8 -26 -6 -15 4 -17 3 -8 -9 10 -11 16 -11 41
2 16 8 29 17 29 19 0 10 -29 5 -36 -6z"/>
<path d="M4630 4880 c0 -5 -8 -10 -17 -10 -15 0 -15 -2 -4 -9 9 -6 22 -6 33 0
22 12 24 29 3 29 -8 0 -15 -4 -15 -10z"/>
<path d="M3372 4841 c-19 -39 -14 -50 23 -57 40 -7 75 15 75 47 0 23 -17 33
-56 34 -23 0 -34 -6 -42 -24z"/>
<path d="M5340 4848 c-25 -27 -25 -35 0 -43 21 -7 100 13 100 25 0 7 -61 40
-74 40 -3 0 -14 -10 -26 -22z"/>
<path d="M4758 4848 c9 -9 15 -9 24 0 9 9 7 12 -12 12 -19 0 -21 -3 -12 -12z"/>
<path d="M4800 4857 c0 -3 11 -18 24 -32 l24 -26 -2 26 c0 14 -4 25 -8 25 -3
0 -13 3 -22 6 -9 3 -16 4 -16 1z"/>
<path d="M2433 4842 c-25 -4 -27 -10 -14 -31 11 -17 61 -7 61 13 0 17 -17 23
-47 18z"/>
<path d="M0 4802 c0 -14 8 -19 31 -20 30 -1 30 0 13 19 -22 24 -44 25 -44 1z"/>
<path d="M4780 4813 c1 -17 28 -44 41 -41 8 2 13 -5 13 -14 -1 -10 2 -18 7
-18 19 0 9 42 -11 47 -11 3 -20 12 -20 19 0 8 -7 14 -15 14 -8 0 -15 -3 -15
-7z"/>
<path d="M5466 4787 c-8 -30 -7 -32 4 -32 6 0 10 4 9 10 0 5 8 12 18 16 16 5
16 7 -4 17 -18 10 -22 8 -27 -11z"/>
<path d="M4773 4720 c-1 -11 2 -20 8 -20 5 0 9 9 9 20 0 11 -4 20 -8 20 -4 0
-8 -9 -9 -20z"/>
<path d="M2680 4356 c0 -2 7 -6 15 -10 8 -3 15 -1 15 4 0 6 -7 10 -15 10 -8 0
-15 -2 -15 -4z"/>
<path d="M4217 4013 c-4 -3 -7 -11 -7 -17 0 -6 5 -5 12 2 6 6 9 14 7 17 -3 3
-9 2 -12 -2z"/>
<path d="M4531 3958 c-1 -15 4 -30 9 -33 12 -7 12 12 0 40 -8 18 -9 17 -9 -7z"/>
<path d="M4810 3871 c0 -5 -3 -16 -6 -25 -4 -11 -1 -16 10 -16 10 0 16 9 16
25 0 14 -4 25 -10 25 -5 0 -10 -4 -10 -9z"/>
<path d="M4580 3820 c0 -5 5 -10 10 -10 6 0 10 5 10 10 0 6 -4 10 -10 10 -5 0
-10 -4 -10 -10z"/>
<path d="M4660 3800 c0 -11 9 -34 20 -52 18 -30 20 -31 20 -10 0 22 -26 82
-35 82 -3 0 -5 -9 -5 -20z"/>
<path d="M4588 3783 c6 -2 18 -2 25 0 6 3 1 5 -13 5 -14 0 -19 -2 -12 -5z"/>
<path d="M4545 3710 c3 -5 8 -10 11 -10 2 0 4 5 4 10 0 6 -5 10 -11 10 -5 0
-7 -4 -4 -10z"/>
<path d="M4556 3634 c-8 -21 11 -54 32 -54 14 1 13 4 -6 19 -13 12 -20 25 -16
35 3 9 4 16 1 16 -3 0 -8 -7 -11 -16z"/>
<path d="M4571 3561 c-7 -5 -10 -14 -7 -20 10 -16 26 -14 26 4 0 16 26 21 32
6 6 -16 100 -18 106 -2 3 8 0 11 -6 7 -6 -3 -22 -2 -37 4 -19 7 -31 7 -40 0
-9 -8 -15 -8 -20 0 -8 12 -35 13 -54 1z"/>
<path d="M4794 3515 c4 -10 -3 -17 -22 -21 -15 -3 -33 -7 -40 -10 -7 -2 -23 1
-36 7 -17 8 -29 8 -42 -1 -17 -10 -17 -11 5 -6 13 3 34 -2 46 -10 14 -9 26
-11 29 -5 3 5 22 8 40 7 27 -3 36 1 40 17 6 23 0 37 -16 37 -5 0 -8 -7 -4 -15z"/>
<path d="M4565 3480 c-3 -6 1 -7 9 -4 18 7 21 14 7 14 -6 0 -13 -4 -16 -10z"/>
<path d="M4600 3451 c0 -5 9 -11 21 -14 16 -4 18 -3 8 9 -13 16 -29 19 -29 5z"/>
<path d="M4685 3450 c3 -5 13 -10 21 -10 8 0 14 5 14 10 0 6 -9 10 -21 10 -11
0 -17 -4 -14 -10z"/>
<path d="M4564 3424 c6 -13 16 -24 23 -24 6 0 15 -9 18 -20 7 -21 20 -26 30
-11 3 5 0 13 -6 16 -5 4 -8 13 -5 21 3 8 0 14 -7 14 -7 0 -24 6 -38 14 -25 13
-25 12 -15 -10z"/>
<path d="M4738 3437 c13 -15 4 -31 -23 -41 -16 -6 -17 -9 -5 -16 10 -7 19 -5
26 5 6 8 17 15 23 15 7 0 9 5 5 11 -4 7 -1 10 7 7 8 -3 16 -15 17 -28 3 -18 0
-21 -14 -16 -14 5 -15 4 -4 -9 10 -12 9 -15 -6 -16 -11 0 -14 -3 -7 -5 14 -6
7 -60 -10 -81 -6 -9 -6 -13 2 -13 7 0 10 -4 6 -9 -3 -6 3 -14 12 -20 10 -6 12
-11 6 -11 -7 0 -13 -7 -13 -16 0 -8 5 -12 10 -9 6 3 10 1 10 -4 0 -6 7 -11 15
-11 16 0 16 -2 18 147 l2 102 -33 6 c-18 3 -30 10 -27 16 4 5 -1 9 -11 9 -12
0 -14 -3 -6 -13z m62 -193 c0 -2 -7 -4 -15 -4 -8 0 -15 4 -15 10 0 5 7 7 15 4
8 -4 15 -8 15 -10z"/>
<path d="M4666 3378 c-16 -48 -16 -48 17 -48 18 0 27 4 20 8 -7 4 -16 19 -22
32 -8 21 -10 22 -15 8z"/>
<path d="M4560 3370 c0 -5 5 -10 11 -10 5 0 7 5 4 10 -3 6 -8 10 -11 10 -2 0
-4 -4 -4 -10z"/>
<path d="M4730 3316 c0 -22 3 -27 11 -19 8 8 8 16 0 30 -9 16 -10 14 -11 -11z"/>
<path d="M4595 3261 c-3 -5 -1 -12 5 -16 5 -3 10 1 10 9 0 18 -6 21 -15 7z"/>
<path d="M4705 3250 c-3 -5 1 -10 10 -10 9 0 13 5 10 10 -3 6 -8 10 -10 10 -2
0 -7 -4 -10 -10z"/>
<path d="M4541 3223 c-1 -21 33 -42 46 -29 4 3 0 6 -9 6 -8 0 -20 10 -26 23
l-11 22 0 -22z"/>
<path d="M4710 3220 c0 -5 7 -10 15 -10 8 0 15 5 15 10 0 6 -7 10 -15 10 -8 0
-15 -4 -15 -10z"/>
<path d="M4778 3150 c27 -12 29 -30 2 -37 -11 -3 -20 -10 -20 -15 0 -6 7 -7
16 -4 9 3 20 6 25 6 5 0 9 11 9 24 0 23 -17 37 -43 35 -7 0 -2 -4 11 -9z"/>
<path d="M4735 3130 c-4 -6 5 -10 20 -10 15 0 24 4 20 10 -3 6 -12 10 -20 10
-8 0 -17 -4 -20 -10z"/>
<path d="M4660 3120 c0 -5 9 -10 21 -10 11 0 17 5 14 10 -3 6 -13 10 -21 10
-8 0 -14 -4 -14 -10z"/>
<path d="M4565 3091 c-6 -11 9 -23 19 -14 9 9 7 23 -3 23 -6 0 -12 -4 -16 -9z"/>
<path d="M4540 3039 c0 -5 5 -7 10 -4 6 3 10 8 10 11 0 2 -4 4 -10 4 -5 0 -10
-5 -10 -11z"/>
<path d="M4580 3046 c0 -2 7 -9 15 -16 12 -10 15 -10 15 4 0 9 -7 16 -15 16
-8 0 -15 -2 -15 -4z"/>
<path d="M4760 3039 c0 -6 -7 -9 -15 -5 -8 3 -15 1 -15 -4 0 -6 9 -10 20 -10
11 0 20 7 20 15 0 8 -2 15 -5 15 -3 0 -5 -5 -5 -11z"/>
<path d="M4782 3025 c-9 -20 -9 -25 2 -25 17 0 30 30 18 42 -5 5 -14 -3 -20
-17z"/>
<path d="M1486 3018 c3 -4 9 -8 15 -8 5 0 9 4 9 8 0 5 -7 9 -15 9 -8 0 -12 -4
-9 -9z"/>
<path d="M4677 3018 c6 -7 13 -20 16 -28 4 -10 6 -8 6 6 1 12 -6 25 -15 28
-13 5 -14 3 -7 -6z"/>
<path d="M4760 2980 c-13 -8 -11 -11 8 -16 22 -6 32 -34 12 -34 -5 0 -10 -6
-10 -14 0 -7 -7 -19 -16 -27 -14 -11 -13 -14 8 -25 21 -12 22 -13 3 -14 -18
-1 -17 -2 5 -15 14 -7 24 -17 23 -22 -1 -4 1 -10 3 -12 2 -2 4 9 5 25 0 16 2
54 3 84 3 80 -6 95 -44 70z"/>
<path d="M4730 2945 c0 -8 29 -12 39 -5 9 5 4 8 -13 8 -14 0 -26 -2 -26 -3z"/>
<path d="M4665 2930 c3 -5 8 -10 11 -10 2 0 4 5 4 10 0 6 -5 10 -11 10 -5 0
-7 -4 -4 -10z"/>
<path d="M4590 2911 c0 -6 5 -13 10 -16 6 -3 10 1 10 9 0 9 -4 16 -10 16 -5 0
-10 -4 -10 -9z"/>
<path d="M4738 2903 c7 -3 16 -2 19 1 4 3 -2 6 -13 5 -11 0 -14 -3 -6 -6z"/>
<path d="M4564 2864 c3 -9 6 -21 6 -27 0 -8 3 -8 11 0 13 13 5 43 -12 43 -6 0
-8 -7 -5 -16z"/>
<path d="M4660 2816 c0 -2 16 -6 35 -8 19 -2 35 0 35 4 0 4 -16 8 -35 8 -19 0
-35 -2 -35 -4z"/>
<path d="M4745 2810 c3 -5 10 -10 16 -10 5 0 9 5 9 10 0 6 -7 10 -16 10 -8 0
-12 -4 -9 -10z"/>
<path d="M4551 2794 c0 -11 3 -14 6 -6 3 7 2 16 -1 19 -3 4 -6 -2 -5 -13z"/>
<path d="M4610 2795 c0 -8 4 -15 10 -15 5 0 7 7 4 15 -4 8 -8 15 -10 15 -2 0
-4 -7 -4 -15z"/>
<path d="M4728 2773 c6 -2 18 -2 25 0 6 3 1 5 -13 5 -14 0 -19 -2 -12 -5z"/>
<path d="M4780 2760 c0 -11 4 -20 9 -20 6 0 9 9 8 20 -1 11 -5 20 -9 20 -4 0
-8 -9 -8 -20z"/>
<path d="M4725 2740 c3 -5 14 -10 23 -10 15 0 15 2 2 10 -20 13 -33 13 -25 0z"/>
<path d="M4787 2723 c-4 -3 -7 -11 -7 -17 0 -6 5 -5 12 2 6 6 9 14 7 17 -3 3
-9 2 -12 -2z"/>
<path d="M4702 2705 l-23 -12 23 -5 c18 -3 24 0 25 14 1 10 1 18 0 17 -1 -1
-12 -7 -25 -14z"/>
<path d="M4780 2651 c0 -6 5 -13 10 -16 6 -3 10 1 10 9 0 9 -4 16 -10 16 -5 0
-10 -4 -10 -9z"/>
<path d="M4814 2640 c-3 -8 -5 -69 -4 -135 0 -66 -2 -116 -6 -112 -4 4 -8 58
-8 119 -1 96 -3 113 -17 116 -11 2 -16 -3 -15 -15 0 -10 -9 -22 -21 -28 -15
-6 -23 -18 -23 -34 0 -24 1 -24 14 -5 12 15 17 17 27 7 11 -11 9 -13 -6 -13
-17 0 -17 -2 3 -23 27 -28 28 -52 5 -66 -10 -6 -12 -11 -5 -11 18 0 15 -18 -5
-23 -16 -4 -16 -5 1 -6 12 -1 16 -6 12 -16 -3 -8 0 -15 7 -16 7 -1 1 -5 -13
-10 -20 -7 -18 -8 11 -4 34 5 36 4 31 -20 -4 -23 -6 -24 -17 -9 -8 11 -14 13
-19 6 -3 -6 2 -17 13 -24 21 -15 38 -82 23 -92 -5 -3 -8 5 -7 17 1 12 -1 31
-5 42 -7 19 -7 19 -14 -2 -4 -13 -12 -23 -18 -23 -6 0 -3 -9 7 -20 10 -11 14
-20 9 -20 -14 0 -31 14 -36 30 -3 11 -8 9 -17 -9 -7 -13 -9 -21 -4 -18 4 2 22
-8 38 -24 17 -16 24 -29 18 -29 -7 0 -13 5 -13 11 0 5 -5 7 -10 4 -6 -4 -8
-15 -5 -26 4 -10 2 -19 -4 -19 -5 0 -16 -3 -25 -6 -12 -4 -16 0 -16 15 0 19
-2 20 -20 9 -13 -9 -16 -14 -8 -17 7 -2 21 -10 31 -19 12 -10 17 -11 17 -3 0
7 10 11 23 9 14 -2 21 -9 19 -20 -3 -19 14 -33 23 -18 3 6 7 28 7 51 0 46 6
47 12 0 5 -41 10 -45 36 -31 20 11 60 6 60 -8 0 -4 189 -7 420 -8 l420 0 0
266 0 267 -38 11 c-24 8 -130 12 -283 13 -134 0 -324 1 -421 2 -150 2 -179 0
-184 -13z"/>
<path d="M4575 2611 c-3 -5 -1 -12 5 -16 5 -3 10 1 10 9 0 18 -6 21 -15 7z"/>
<path d="M4535 2440 c4 -6 11 -8 16 -5 14 9 11 15 -7 15 -8 0 -12 -5 -9 -10z"/>
<path d="M4708 2313 c6 -2 18 -2 25 0 6 3 1 5 -13 5 -14 0 -19 -2 -12 -5z"/>
<path d="M4530 2170 c0 -5 5 -10 10 -10 6 0 10 5 10 10 0 6 -4 10 -10 10 -5 0
-10 -4 -10 -10z"/>
<path d="M4600 2150 c0 -5 5 -10 11 -10 5 0 7 5 4 10 -3 6 -8 10 -11 10 -2 0
-4 -4 -4 -10z"/>
<path d="M4540 2121 c0 -5 9 -7 20 -4 11 3 20 7 20 9 0 2 -9 4 -20 4 -11 0
-20 -4 -20 -9z"/>
<path d="M4630 2060 c19 -13 30 -13 30 0 0 6 -10 10 -22 10 -19 0 -20 -2 -8
-10z"/>
<path d="M4745 2052 c14 -10 20 -56 6 -48 -18 12 -12 -6 7 -20 27 -21 32 -17
32 29 0 39 -2 43 -27 45 -16 1 -23 -2 -18 -6z"/>
<path d="M4590 1990 c0 -5 5 -10 11 -10 5 0 7 5 4 10 -3 6 -8 10 -11 10 -2 0
-4 -4 -4 -10z"/>
<path d="M4538 1983 c7 -3 16 -2 19 1 4 3 -2 6 -13 5 -11 0 -14 -3 -6 -6z"/>
<path d="M4640 1951 c0 -5 7 -12 16 -15 24 -9 27 -7 10 9 -17 17 -26 19 -26 6z"/>
<path d="M4727 1940 c-20 -17 -20 -19 -5 -25 10 -4 15 -11 12 -16 -3 -5 2 -6
10 -3 18 7 22 24 6 24 -5 0 -10 5 -10 11 0 6 9 9 20 6 11 -3 22 -2 25 3 11 17
-36 17 -58 0z"/>
<path d="M4555 1900 c3 -5 11 -10 16 -10 6 0 7 5 4 10 -3 6 -11 10 -16 10 -6
0 -7 -4 -4 -10z"/>
<path d="M4667 1895 c6 -18 34 -16 41 3 2 7 -6 12 -22 12 -19 0 -24 -4 -19
-15z"/>
<path d="M4750 1840 c0 -29 -4 -40 -15 -40 -8 0 -15 -4 -15 -10 0 -5 7 -10 15
-10 8 0 15 -7 15 -15 0 -12 5 -10 21 6 16 16 18 23 9 34 -7 8 -9 19 -6 24 4 5
2 13 -4 16 -8 5 -7 11 1 21 9 11 8 14 -5 14 -12 0 -16 -10 -16 -40z"/>
<path d="M4584 1846 c22 -18 46 -21 46 -6 0 6 -6 10 -14 10 -8 0 -23 3 -33 6
-16 5 -16 4 1 -10z"/>
<path d="M4650 1845 c-8 -9 -8 -15 -2 -15 12 0 26 19 19 26 -2 2 -10 -2 -17
-11z"/>
<path d="M4532 1830 c0 -14 2 -19 5 -12 2 6 2 18 0 25 -3 6 -5 1 -5 -13z"/>
<path d="M4530 1780 c0 -13 5 -17 20 -13 24 6 22 25 -3 29 -11 1 -17 -5 -17
-16z"/>
<path d="M1660 1780 c0 -5 5 -10 10 -10 6 0 10 5 10 10 0 6 -4 10 -10 10 -5 0
-10 -4 -10 -10z"/>
<path d="M4607 1773 c-4 -3 -7 -11 -7 -17 0 -6 5 -5 12 2 6 6 9 14 7 17 -3 3
-9 2 -12 -2z"/>
<path d="M4746 1732 c-2 -4 4 -13 15 -20 16 -11 19 -9 19 8 0 19 -24 28 -34
12z"/>
<path d="M4743 1685 c4 -8 2 -17 -3 -20 -6 -4 -10 -13 -10 -22 0 -13 3 -13 15
-3 13 10 15 9 15 -9 0 -11 5 -21 11 -21 6 0 9 6 6 14 -3 7 -1 18 4 23 6 6 2
18 -9 31 -22 25 -37 29 -29 7z"/>
<path d="M4618 1598 c9 -9 15 -9 24 0 9 9 7 12 -12 12 -19 0 -21 -3 -12 -12z"/>
<path d="M4542 1568 c2 -6 10 -14 18 -16 7 -3 10 0 6 6 -3 6 4 12 16 15 16 3
13 5 -10 6 -22 1 -32 -3 -30 -11z"/>
<path d="M4610 1550 c0 -6 4 -10 9 -10 5 0 12 -8 14 -17 4 -14 5 -13 6 3 0 12
-6 24 -14 28 -8 3 -15 1 -15 -4z"/>
<path d="M4678 1522 c-37 -27 -47 -42 -28 -42 6 0 13 7 16 15 4 8 14 15 24 15
15 0 36 27 28 36 -2 1 -20 -10 -40 -24z"/>
<path d="M4945 1530 c3 -5 8 -10 11 -10 2 0 4 5 4 10 0 6 -5 10 -11 10 -5 0
-7 -4 -4 -10z"/>
<path d="M4989 1514 c-13 -35 -5 -40 25 -17 19 15 22 23 13 32 -17 17 -27 13
-38 -15z"/>
<path d="M5090 1520 c-12 -23 -5 -26 16 -6 16 17 18 26 4 26 -5 0 -14 -9 -20
-20z"/>
<path d="M4580 1505 c7 -8 16 -15 21 -15 5 0 9 7 9 15 0 9 -9 15 -21 15 -18 0
-19 -2 -9 -15z"/>
<path d="M4763 1513 c9 -2 23 -2 30 0 6 3 -1 5 -18 5 -16 0 -22 -2 -12 -5z"/>
<path d="M5720 1510 c0 -5 5 -10 10 -10 6 0 10 5 10 10 0 6 -4 10 -10 10 -5 0
-10 -4 -10 -10z"/>
<path d="M5063 1495 c1 -13 11 -20 29 -22 15 -1 30 2 33 8 4 5 -7 9 -24 9 -16
0 -32 6 -35 13 -3 6 -5 3 -3 -8z"/>
<path d="M5303 1498 c-2 -5 7 -8 21 -8 14 0 27 3 29 8 3 4 -6 7 -20 7 -14 0
-27 -3 -30 -7z"/>
<path d="M4758 1493 c6 -2 18 -2 25 0 6 3 1 5 -13 5 -14 0 -19 -2 -12 -5z"/>
<path d="M5034 1492 c5 -7 -1 -16 -16 -21 -23 -10 -23 -10 -1 -10 12 -1 23 -7
26 -13 3 -9 7 -7 12 5 5 12 2 24 -10 35 -10 9 -15 11 -11 4z"/>
<path d="M4676 1471 c-4 -5 -2 -20 3 -33 9 -21 10 -21 10 10 1 32 -3 39 -13
23z"/>
<path d="M4645 1450 c-3 -5 -1 -10 4 -10 6 0 11 5 11 10 0 6 -2 10 -4 10 -3 0
-8 -4 -11 -10z"/>
<path d="M4972 1428 c2 -24 9 -34 23 -37 19 -3 19 -3 2 16 -10 12 -15 27 -11
37 3 9 1 16 -6 16 -7 0 -10 -13 -8 -32z"/>
<path d="M5070 1450 c0 -5 5 -10 10 -10 6 0 10 5 10 10 0 6 -4 10 -10 10 -5 0
-10 -4 -10 -10z"/>
<path d="M5280 1452 c0 -5 7 -13 16 -16 10 -4 14 -1 12 6 -5 15 -28 23 -28 10z"/>
<path d="M5320 1440 c0 -5 6 -7 14 -4 7 3 16 -2 19 -10 4 -9 15 -16 26 -16 15
0 18 5 13 22 -5 20 -6 20 -12 3 -6 -17 -7 -17 -13 -2 -7 18 -47 24 -47 7z"/>
<path d="M4880 1429 c0 -5 5 -7 10 -4 6 3 10 8 10 11 0 2 -4 4 -10 4 -5 0 -10
-5 -10 -11z"/>
<path d="M4810 1421 c0 -5 6 -12 13 -14 9 -4 9 -6 -1 -6 -7 -1 -11 -5 -8 -10
7 -10 56 -2 56 10 0 5 -7 9 -15 9 -8 0 -15 5 -15 10 0 6 -7 10 -15 10 -8 0
-15 -4 -15 -9z"/>
<path d="M5020 1420 c-13 -8 -13 -10 2 -10 9 0 20 5 23 10 8 13 -5 13 -25 0z"/>
<path d="M5135 1420 c3 -5 11 -10 16 -10 6 0 7 5 4 10 -3 6 -11 10 -16 10 -6
0 -7 -4 -4 -10z"/>
<path d="M4750 1412 c0 -16 29 -42 47 -42 9 0 14 1 12 3 -2 1 -16 13 -31 26
-16 14 -28 20 -28 13z"/>
<path d="M4185 1400 c3 -5 11 -10 16 -10 6 0 7 5 4 10 -3 6 -11 10 -16 10 -6
0 -7 -4 -4 -10z"/>
<path d="M5650 1406 c0 -2 7 -7 16 -10 8 -3 12 -2 9 4 -6 10 -25 14 -25 6z"/>
<path d="M4885 1390 c3 -5 13 -10 21 -10 8 0 12 5 9 10 -3 6 -13 10 -21 10 -8
0 -12 -4 -9 -10z"/>
<path d="M5170 1390 c20 -13 40 -13 40 0 0 6 -12 10 -27 10 -22 0 -25 -2 -13
-10z"/>
<path d="M4570 1379 c-13 -9 -13 -10 1 -6 9 3 28 -1 43 -8 21 -11 26 -11 26
-1 0 8 -10 16 -22 20 -30 8 -30 8 -48 -5z"/>
<path d="M5078 1354 c22 -15 42 -12 42 7 0 5 -15 9 -32 9 -32 0 -32 0 -10 -16z"/>
<path d="M4160 1350 c0 -5 7 -10 16 -10 8 0 12 5 9 10 -3 6 -10 10 -16 10 -5
0 -9 -4 -9 -10z"/>
<path d="M5158 1353 c6 -2 18 -2 25 0 6 3 1 5 -13 5 -14 0 -19 -2 -12 -5z"/>
<path d="M418 1303 c6 -2 18 -2 25 0 6 3 1 5 -13 5 -14 0 -19 -2 -12 -5z"/>
<path d="M3433 1280 c1 -11 8 -20 15 -20 11 0 12 3 3 13 -6 8 -8 17 -4 20 3 4
1 7 -5 7 -6 0 -10 -9 -9 -20z"/>
<path d="M1860 1275 c0 -8 7 -15 15 -15 8 0 15 7 15 15 0 8 -7 15 -15 15 -8 0
-15 -7 -15 -15z"/>
<path d="M2818 1263 c7 -3 16 -2 19 1 4 3 -2 6 -13 5 -11 0 -14 -3 -6 -6z"/>
<path d="M4042 1251 c4 -13 18 -16 19 -4 0 4 -5 9 -11 12 -7 2 -11 -2 -8 -8z"/>
<path d="M2960 1240 c0 -5 5 -10 11 -10 5 0 7 5 4 10 -3 6 -8 10 -11 10 -2 0
-4 -4 -4 -10z"/>
<path d="M5370 1220 c-12 -8 -10 -10 8 -10 13 0 20 4 17 10 -7 12 -6 12 -25 0z"/>
<path d="M4365 1210 c3 -5 8 -10 11 -10 2 0 4 5 4 10 0 6 -5 10 -11 10 -5 0
-7 -4 -4 -10z"/>
<path d="M335 1200 c-3 -5 1 -10 10 -10 9 0 13 5 10 10 -3 6 -8 10 -10 10 -2
0 -7 -4 -10 -10z"/>
<path d="M3010 1144 c0 -8 5 -12 10 -9 6 4 8 11 5 16 -9 14 -15 11 -15 -7z"/>
<path d="M5436 1152 c-3 -6 -1 -14 5 -17 15 -10 25 3 12 16 -7 7 -13 7 -17 1z"/>
<path d="M495 1130 c-3 -5 3 -10 15 -10 12 0 18 5 15 10 -3 6 -10 10 -15 10
-5 0 -12 -4 -15 -10z"/>
<path d="M5115 1060 c3 -5 8 -10 11 -10 2 0 4 5 4 10 0 6 -5 10 -11 10 -5 0
-7 -4 -4 -10z"/>
<path d="M2650 1040 c0 -5 7 -10 15 -10 8 0 15 5 15 10 0 6 -7 10 -15 10 -8 0
-15 -4 -15 -10z"/>
<path d="M5260 1036 c0 -9 7 -16 16 -16 9 0 14 5 12 12 -6 18 -28 21 -28 4z"/>
<path d="M4975 1030 c-3 -5 -1 -10 4 -10 6 0 11 5 11 10 0 6 -2 10 -4 10 -3 0
-8 -4 -11 -10z"/>
<path d="M398 1023 c7 -3 16 -2 19 1 4 3 -2 6 -13 5 -11 0 -14 -3 -6 -6z"/>
<path d="M2428 988 c9 -9 15 -9 24 0 9 9 7 12 -12 12 -19 0 -21 -3 -12 -12z"/>
<path d="M5315 990 c3 -5 8 -10 11 -10 2 0 4 5 4 10 0 6 -5 10 -11 10 -5 0 -7
-4 -4 -10z"/>
<path d="M536 980 c-11 -3 -15 -9 -10 -13 10 -6 42 9 34 16 -3 3 -14 1 -24 -3z"/>
<path d="M1500 940 c0 -5 5 -10 10 -10 6 0 10 5 10 10 0 6 -4 10 -10 10 -5 0
-10 -4 -10 -10z"/>
<path d="M4008 923 c7 -3 16 -2 19 1 4 3 -2 6 -13 5 -11 0 -14 -3 -6 -6z"/>
<path d="M1140 910 c0 -5 5 -10 10 -10 6 0 10 5 10 10 0 6 -4 10 -10 10 -5 0
-10 -4 -10 -10z"/>
<path d="M2758 888 c9 -9 15 -9 24 0 9 9 7 12 -12 12 -19 0 -21 -3 -12 -12z"/>
<path d="M1470 880 c0 -5 7 -10 15 -10 8 0 15 5 15 10 0 6 -7 10 -15 10 -8 0
-15 -4 -15 -10z"/>
<path d="M4396 875 c4 -8 10 -15 15 -15 5 0 9 7 9 15 0 8 -7 15 -15 15 -9 0
-12 -6 -9 -15z"/>
<path d="M3655 810 c-3 -5 1 -10 10 -10 9 0 13 5 10 10 -3 6 -8 10 -10 10 -2
0 -7 -4 -10 -10z"/>
<path d="M4096 683 c-14 -15 -5 -43 14 -43 13 0 20 7 20 19 0 19 -23 35 -34
24z"/>
<path d="M4160 620 c0 -5 5 -10 11 -10 5 0 7 5 4 10 -3 6 -8 10 -11 10 -2 0
-4 -4 -4 -10z"/>
<path d="M4425 621 c-7 -12 12 -24 25 -16 11 7 4 25 -10 25 -5 0 -11 -4 -15
-9z"/>
<path d="M1390 610 c0 -5 5 -10 10 -10 6 0 10 5 10 10 0 6 -4 10 -10 10 -5 0
-10 -4 -10 -10z"/>
<path d="M2950 580 c0 -11 7 -20 15 -20 8 0 15 9 15 20 0 11 -7 20 -15 20 -8
0 -15 -9 -15 -20z"/>
<path d="M1873 555 c-9 -25 2 -27 28 -6 l24 20 -23 1 c-12 0 -25 -7 -29 -15z"/>
<path d="M2060 490 c0 -5 9 -10 20 -10 11 0 20 5 20 10 0 6 -9 10 -20 10 -11
0 -20 -4 -20 -10z"/>
<path d="M3303 453 c-21 -8 -16 -49 7 -50 24 -2 33 11 25 37 -6 20 -11 22 -32
13z"/>
<path d="M445 380 c-3 -5 -2 -10 4 -10 5 0 13 5 16 10 3 6 2 10 -4 10 -5 0
-13 -4 -16 -10z"/>
<path d="M2543 343 c-19 -7 -16 -19 11 -37 24 -15 56 -13 56 4 0 13 -30 40
-43 39 -7 0 -18 -3 -24 -6z"/>
<path d="M4785 290 c3 -5 8 -10 11 -10 2 0 4 5 4 10 0 6 -5 10 -11 10 -5 0 -7
-4 -4 -10z"/>
<path d="M2320 256 c0 -7 6 -19 14 -25 11 -9 15 -8 20 5 10 26 7 34 -14 34
-11 0 -20 -6 -20 -14z"/>
<path d="M4744 219 c-8 -14 11 -33 25 -25 6 4 11 11 11 16 0 13 -29 20 -36 9z"/>
<path d="M4825 190 c3 -5 12 -7 20 -3 21 7 19 13 -6 13 -11 0 -18 -4 -14 -10z"/>
<path d="M2955 60 c-10 -16 15 -41 39 -38 32 5 28 42 -6 46 -14 2 -29 -2 -33
-8z"/>
<path d="M1347 34 c-9 -10 2 -24 19 -24 8 0 14 7 14 15 0 15 -21 21 -33 9z"/>
</g>
</svg>
